<?xml version="1.0" encoding="UTF-8" standalone="no"?>
<!-- Created with Inkscape (http://www.inkscape.org/) -->

<svg
   width="45.512508mm"
   height="61.420406mm"
   viewBox="0 0 45.512508 61.420406"
   version="1.1"
   id="svg1"
   inkscape:version="1.3.2 (091e20e, 2023-11-25, custom)"
   sodipodi:docname="tree_01.svg"
   xmlns:inkscape="http://www.inkscape.org/namespaces/inkscape"
   xmlns:sodipodi="http://sodipodi.sourceforge.net/DTD/sodipodi-0.dtd"
   xmlns="http://www.w3.org/2000/svg"
   xmlns:svg="http://www.w3.org/2000/svg">
  <sodipodi:namedview
     id="namedview1"
     pagecolor="#ffffff"
     bordercolor="#000000"
     borderopacity="0.25"
     inkscape:showpageshadow="2"
     inkscape:pageopacity="0.0"
     inkscape:pagecheckerboard="0"
     inkscape:deskcolor="#d1d1d1"
     inkscape:document-units="mm"
     inkscape:zoom="0.72426347"
     inkscape:cx="396.95499"
     inkscape:cy="561.25984"
     inkscape:window-width="1920"
     inkscape:window-height="1009"
     inkscape:window-x="-8"
     inkscape:window-y="-8"
     inkscape:window-maximized="1"
     inkscape:current-layer="layer1" />
  <defs
     id="defs1" />
  <g
     inkscape:label="Layer 1"
     inkscape:groupmode="layer"
     id="layer1"
     transform="translate(-82.361162,-117.71283)">
    <path
       d="m 101.13843,178.60433 c 0.14471,-0.66972 0.85842,-4.11498 0.96904,-4.67783 0.19663,-1.00042 0.35971,-2.30051 0.46198,-3.683 0.0603,-0.81492 0.10168,-1.4913 0.092,-1.50306 -0.01,-0.0118 -0.33822,0.17245 -0.73003,0.40937 -2.085086,1.26078 -4.318735,2.0703 -6.63459,2.40451 -1.44872,0.20907 -4.280134,0.22986 -4.280134,0.0314 0,-0.0397 0.04013,-0.0722 0.08917,-0.0722 0.167985,0 1.254088,-0.76038 1.775096,-1.24274 0.286432,-0.26518 0.688039,-0.69951 0.892458,-0.96517 0.340671,-0.44273 1.049266,-1.64754 1.052082,-1.78884 6.62e-4,-0.0328 -0.160223,-0.003 -0.357508,0.0668 -1.936129,0.6831 -4.848646,0.90591 -7.080954,0.54168 -1.723388,-0.28119 -2.99883,-0.68268 -4.371346,-1.37604 -0.713916,-0.36065 -0.748644,-0.3902 -0.550334,-0.46835 2.352362,-0.92703 5.497487,-2.75196 7.662333,-4.446 0.924479,-0.72343 2.389082,-2.0048 2.955491,-2.58575 l 0.41549,-0.42615 -0.524577,0.16327 c -1.310043,0.40773 -3.536027,0.43106 -5.01165,0.0525 -0.902187,-0.23143 -1.832922,-0.59896 -2.528689,-0.99855 l -0.460602,-0.26452 0.917645,-0.32707 c 1.998291,-0.71222 4.028768,-2.02401 5.406087,-3.4926 0.709162,-0.75615 2.005805,-2.49785 2.005805,-2.69426 0,-0.0242 -0.390525,-0.0658 -0.867833,-0.0926 -0.477308,-0.0267 -1.191683,-0.13095 -1.5875,-0.23158 -0.73293,-0.18634 -2.254099,-0.85705 -2.608819,-1.15028 l -0.195819,-0.16187 0.992153,-0.50116 c 2.520414,-1.2731 4.835673,-3.18502 6.721842,-5.5508 0.679259,-0.85198 1.948643,-2.745 1.948643,-2.90598 0,-0.0316 -0.398174,-0.0573 -0.884833,-0.0573 -0.486659,0 -1.086733,-0.0413 -1.3335,-0.0918 -0.638591,-0.13059 -1.930783,-0.51766 -1.927932,-0.57751 0.0013,-0.0277 0.220395,-0.18238 0.486833,-0.3437 0.870334,-0.52693 2.422902,-1.74851 3.000612,-2.36091 0.79444,-0.84215 1.369687,-1.68247 1.892419,-2.76446 0.439475,-0.90965 1.197511,-2.97345 1.120451,-3.0505 -0.0213,-0.0213 -0.280966,0.0562 -0.577026,0.17222 -0.84219,0.33005 -1.752127,0.42988 -2.837813,0.31133 -0.503019,-0.0549 -0.931523,-0.11681 -0.952233,-0.13751 -0.02071,-0.0207 0.188664,-0.31603 0.465276,-0.65626 1.57953,-1.94283 3.369712,-4.89792 4.554936,-7.51894 0.8402,-1.85802 1.85244,-4.57755 2.12163,-5.70004 0.0315,-0.13146 0.0882,-0.20766 0.12586,-0.16933 0.0377,0.0383 0.33236,0.6031 0.65482,1.25503 0.32246,0.65194 0.77714,1.52824 1.01039,1.94734 0.23326,0.4191 0.52998,0.9525 0.65938,1.18533 0.47415,0.85315 1.44177,2.31363 2.24379,3.38667 1.12102,1.49982 3.17737,3.62639 4.35861,4.50745 l 0.254,0.18945 -0.21167,0.1695 c -0.28688,0.22973 -1.39404,0.65084 -1.86266,0.70847 -0.20955,0.0258 -0.68002,0.0488 -1.04548,0.0512 l -0.66449,0.004 0.17892,0.27517 c 0.0984,0.15134 0.62602,1.01098 1.17248,1.91031 0.54646,0.89933 1.29419,2.04233 1.66163,2.54 1.18854,1.60982 2.65209,2.87989 4.31107,3.74119 0.40362,0.20955 0.73431,0.42069 0.73486,0.4692 0.001,0.10715 -0.61402,0.70288 -0.99547,0.96391 -0.73385,0.50218 -2.20928,0.85191 -3.59669,0.85255 -0.40746,1.8e-4 -0.74083,0.0242 -0.74083,0.0534 0,0.0292 0.10888,0.26729 0.24195,0.52917 1.4843,2.92091 4.08724,5.47245 7.14927,7.00812 l 0.92881,0.46582 -0.36037,0.36719 c -0.1982,0.20195 -0.6109,0.49435 -0.9171,0.64976 -0.54113,0.27467 -0.58578,0.28258 -1.59418,0.28258 h -1.03745 l 0.1375,0.21167 c 1.0643,1.63831 3.3336,3.61786 5.38949,4.70137 0.98707,0.52022 1.90861,0.89724 2.87501,1.17625 l 0.67804,0.19574 -0.65036,0.48096 c -1.8205,1.34633 -3.34694,1.76251 -4.7325,1.29031 l -0.57022,-0.19433 0.16449,0.26002 c 0.47575,0.752 0.97766,1.36364 1.77983,2.16893 1.4035,1.40896 2.84823,2.40038 5.75298,3.94786 0.85884,0.45754 1.55893,0.86999 1.55577,0.91655 -0.003,0.0466 -0.28675,0.22593 -0.63019,0.39859 -3.97665,1.99914 -8.08766,2.0879 -10.55161,0.22783 l -0.4445,-0.33557 0.001,0.36258 c 0.004,1.18309 0.73119,2.73843 1.80106,3.85258 l 0.51053,0.53167 -1.17759,-0.0508 c -3.08405,-0.13307 -5.71437,-0.77379 -7.60554,-1.85264 -0.36884,-0.21041 -0.6774,-0.38256 -0.68568,-0.38256 -0.008,0 0.0179,0.21908 0.0581,0.48683 0.0402,0.26776 0.0923,0.62019 0.1157,0.78317 0.41067,2.86157 1.22466,5.60716 2.30288,7.76756 0.16833,0.33728 0.27714,0.64208 0.2418,0.67734 -0.0353,0.0353 -1.27068,0.0663 -2.74522,0.0691 -1.74385,0.003 -2.84037,0.0403 -3.13702,0.10584 -0.28884,0.0639 -1.27137,0.10083 -2.67978,0.10083 h -2.22374 z"
       style="fill:#000000;stroke-width:0.264583"
       id="path1" />
  </g>
</svg>
