<?xml version="1.0" encoding="UTF-8" standalone="no"?>
<!-- Created with Inkscape (http://www.inkscape.org/) -->

<svg
   width="40.978352mm"
   height="63.615391mm"
   viewBox="0 0 40.978352 63.615391"
   version="1.1"
   id="svg1"
   xmlns:inkscape="http://www.inkscape.org/namespaces/inkscape"
   xmlns:sodipodi="http://sodipodi.sourceforge.net/DTD/sodipodi-0.dtd"
   xmlns="http://www.w3.org/2000/svg"
   xmlns:svg="http://www.w3.org/2000/svg">
  <sodipodi:namedview
     id="namedview1"
     pagecolor="#ffffff"
     bordercolor="#000000"
     borderopacity="0.25"
     inkscape:showpageshadow="2"
     inkscape:pageopacity="0.0"
     inkscape:pagecheckerboard="0"
     inkscape:deskcolor="#d1d1d1"
     inkscape:document-units="mm" />
  <defs
     id="defs1" />
  <g
     inkscape:label="Layer 1"
     inkscape:groupmode="layer"
     id="layer1"
     transform="translate(-75.535997,-36.107894)">
    <path
       d="m 90.277409,99.6561 -0.879276,-0.08687 0.05088,-0.561533 c 0.02799,-0.308843 0.128924,-1.133033 0.224303,-1.831533 0.09538,-0.6985 0.231662,-1.70815 0.302845,-2.243667 0.07118,-0.535516 0.185709,-1.392766 0.2545,-1.905 0.265803,-1.97922 0.289245,-2.188998 0.249084,-2.229156 -0.02278,-0.02278 -0.413192,-0.07097 -0.867576,-0.107075 -3.424058,-0.272094 -7.953754,-0.951261 -10.605154,-1.590095 -1.616927,-0.389589 -3.470092,-0.98407 -3.471016,-1.113481 -1.74e-4,-0.02445 0.466408,-0.449619 1.03685,-0.944795 1.542647,-1.339106 3.665593,-3.614568 4.922427,-5.276061 L 81.815506,81.3435 80.996417,81.28413 C 80.138328,81.22193 79.04008,80.981825 78.550059,80.749296 L 78.2615,80.612358 79.671425,79.298133 c 2.058045,-1.918349 3.194833,-3.15349 3.983667,-4.328324 0.431541,-0.64271 1.053232,-1.928167 1.227214,-2.537476 l 0.126921,-0.4445 -0.566939,-2.65e-4 c -0.713218,-2.64e-4 -1.918885,-0.208343 -2.543807,-0.438864 -0.263155,-0.09707 -0.493173,-0.189212 -0.511151,-0.204759 -0.01799,-0.01556 0.269179,-0.362804 0.63813,-0.771686 2.16367,-2.397834 3.608337,-4.322339 4.950809,-6.595195 0.574225,-0.972179 1.521439,-2.939544 1.445419,-3.002129 -0.03245,-0.02671 -0.420881,-0.115445 -0.86318,-0.197186 -0.442298,-0.08174 -0.994748,-0.22856 -1.227666,-0.326276 -0.621411,-0.260694 -1.329304,-0.743696 -1.279642,-0.873109 0.02323,-0.06056 0.318572,-0.484071 0.656302,-0.941147 1.337149,-1.809668 5.101145,-7.303304 5.043442,-7.36101 -0.01072,-0.01071 -0.320989,-0.02826 -0.689517,-0.03903 -0.36853,-0.01077 -0.904846,-0.06878 -1.191816,-0.128936 -0.534556,-0.112052 -1.382384,-0.414076 -1.509185,-0.537621 -0.03901,-0.03801 0.358648,-0.578209 0.883687,-1.200445 1.623885,-1.924507 3.537561,-4.606536 4.643337,-6.507672 0.203139,-0.34925 0.452352,-0.76835 0.553807,-0.931333 0.438462,-0.704369 1.696437,-3.316645 2.169975,-4.506118 0.283234,-0.711452 0.52487,-1.303987 0.536966,-1.316745 0.01209,-0.01276 0.128024,0.272992 0.25762,0.635 0.771348,2.154668 1.465786,3.572343 3.246289,6.627196 1.310943,2.249213 2.568983,4.266136 4.045733,6.486237 0.62288,0.936414 1.13251,1.732219 1.13251,1.768457 0,0.130791 -1.98514,-0.02101 -2.73676,-0.20927 -0.41089,-0.102923 -0.75937,-0.174072 -0.77439,-0.158112 -0.0423,0.04496 1.79755,3.69357 2.55493,5.066689 0.87223,1.581306 1.00367,1.813022 1.62747,2.868932 0.28569,0.483598 0.49595,0.902698 0.46723,0.931333 -0.0809,0.08065 -2.30692,0.04016 -2.85298,-0.05189 -0.51911,-0.08751 -0.55274,-0.07015 -0.36986,0.190955 0.11507,0.164304 1.06872,1.889665 1.87059,3.384341 0.88897,1.657003 2.2629,3.711387 3.49741,5.229524 0.29407,0.361638 0.51242,0.693536 0.48522,0.737553 -0.0758,0.12265 -1.77051,0.639807 -2.62586,0.801306 -0.4191,0.07913 -0.86986,0.169767 -1.00169,0.201411 l -0.23969,0.05754 0.44463,0.592667 c 1.70062,2.266865 4.24079,4.709549 6.82679,6.564799 0.28968,0.207828 0.52781,0.398092 0.52916,0.422812 0.003,0.05871 -1.52678,1.012219 -2.07186,1.291209 -0.83168,0.42567 -0.81944,0.378934 -0.28513,1.088464 1.30515,1.733169 4.06236,4.412398 5.85196,5.68646 0.26776,0.190624 0.48683,0.371181 0.48683,0.401238 0,0.131159 -1.92671,0.945128 -3.25966,1.377098 -2.11534,0.685514 -3.69529,1.064019 -7.15434,1.713947 -0.88367,0.166036 -4.05622,0.612439 -4.83865,0.680836 -0.35621,0.03114 -0.69121,0.08354 -0.74445,0.116443 -0.0891,0.05504 -0.007,0.687941 0.37548,2.881691 0.12048,0.69179 0.83168,4.00299 1.02167,4.756677 0.11364,0.450823 0.20662,0.855413 0.20662,0.899091 0,0.08569 -0.83135,0.205703 -2.836334,0.409448 -1.562476,0.158779 -7.713824,0.225515 -9.007277,0.09772 z"
       style="fill:#000000;stroke-width:0.264583"
       id="path1" />
  </g>
</svg>
